<?xml version="1.0" encoding="utf-8"?>
<!-- Generator: Adobe Illustrator 27.5.0, SVG Export Plug-In . SVG Version: 6.00 Build 0)  -->
<svg version="1.1" xmlns="http://www.w3.org/2000/svg" xmlns:xlink="http://www.w3.org/1999/xlink" x="0px" y="0px"
	 viewBox="0 0 500 500" style="enable-background:new 0 0 500 500;" xml:space="preserve">
<g id="Background_Simple">
	<g>
		<path style="fill:#92E3A9;" d="M463.856,276.39c-14.722,39.433-44.804,82.112-87.135,94.748
			c-63.961,19.098-71.602,70.655-186.163,65.873c-17.862-0.744-34.371-3.255-49.538-7.264c-8.153-2.154-15.92-4.753-23.291-7.747
			C50.804,394.892,15.892,335.231,12.994,272.806c-3.825-82.102,53.46-121.236,90.69-144.15
			c37.231-22.914,82.102-111.701,194.76-107.885c17.176,0.589,34.313,2.937,50.919,7.438c37.907,10.259,76.441,32.951,98.834,66.124
			c1.681,2.492,3.285,5.043,4.82,7.641C482.984,152.816,483.93,222.631,463.856,276.39z"/>
		<path style="opacity:0.7;fill:#FFFFFF;" d="M463.856,276.39c-14.722,39.433-44.804,82.112-87.135,94.748
			c-63.961,19.098-71.602,70.655-186.163,65.873c-17.862-0.744-34.371-3.255-49.538-7.264c-8.153-2.154-15.92-4.753-23.291-7.747
			C50.804,394.892,15.892,335.231,12.994,272.806c-3.825-82.102,53.46-121.236,90.69-144.15
			c37.231-22.914,82.102-111.701,194.76-107.885c17.176,0.589,34.313,2.937,50.919,7.438c37.907,10.259,76.441,32.951,98.834,66.124
			c1.681,2.492,3.285,5.043,4.82,7.641C482.984,152.816,483.93,222.631,463.856,276.39z"/>
	</g>
</g>
<g id="Clouds">
	<g>
		<path style="fill:none;stroke:#263238;stroke-linecap:round;stroke-linejoin:round;stroke-miterlimit:10;" d="M466.687,45.181
			c0,0-10.12,2.95-11.52-4.189c-0.838-4.275-2.963-15.52-13.959-17.614s-18.505,9.236-18.505,15.52c0,6.283-4.713,3.142-9.425,4.712
			c-4.712,1.571-8.378,4.189-9.425,8.902c-1.047,4.713-2.094,2.094-8.901,3.142c-6.807,1.047-8.901,5.236-8.901,5.236h95.822
			c0,0,0.264-8.917-3.925-12.582C473.757,44.642,469.828,44.657,466.687,45.181z"/>
		<path style="fill:none;stroke:#263238;stroke-linecap:round;stroke-linejoin:round;stroke-miterlimit:10;" d="M407.924,31.851
			c0,0-5.381,1.568-6.125-2.227c-0.446-2.273-1.575-8.252-7.422-9.365c-5.846-1.114-9.839,4.911-9.839,8.252
			s-2.506,1.67-5.011,2.506c-2.506,0.835-4.454,2.227-5.011,4.733c-0.557,2.506-1.114,1.114-4.733,1.67
			c-3.619,0.557-4.733,2.784-4.733,2.784h50.948c0,0,0.14-4.741-2.087-6.69C411.684,31.564,409.595,31.573,407.924,31.851z"/>
		<g>
			
				<line style="fill:none;stroke:#263238;stroke-linecap:round;stroke-linejoin:round;stroke-miterlimit:10;" x1="475" y1="63.5" x2="475" y2="77.5"/>
			
				<line style="fill:none;stroke:#263238;stroke-linecap:round;stroke-linejoin:round;stroke-miterlimit:10;" x1="467" y1="71" x2="467" y2="85"/>
			
				<line style="fill:none;stroke:#263238;stroke-linecap:round;stroke-linejoin:round;stroke-miterlimit:10;" x1="459.5" y1="63.5" x2="459.5" y2="77.5"/>
			
				<line style="fill:none;stroke:#263238;stroke-linecap:round;stroke-linejoin:round;stroke-miterlimit:10;" x1="451.5" y1="71" x2="451.5" y2="85"/>
			
				<line style="fill:none;stroke:#263238;stroke-linecap:round;stroke-linejoin:round;stroke-miterlimit:10;" x1="444" y1="63.5" x2="444" y2="77.5"/>
			
				<line style="fill:none;stroke:#263238;stroke-linecap:round;stroke-linejoin:round;stroke-miterlimit:10;" x1="436" y1="71" x2="436" y2="85"/>
			
				<line style="fill:none;stroke:#263238;stroke-linecap:round;stroke-linejoin:round;stroke-miterlimit:10;" x1="428.5" y1="63.5" x2="428.5" y2="77.5"/>
			
				<line style="fill:none;stroke:#263238;stroke-linecap:round;stroke-linejoin:round;stroke-miterlimit:10;" x1="420.5" y1="71" x2="420.5" y2="85"/>
			
				<line style="fill:none;stroke:#263238;stroke-linecap:round;stroke-linejoin:round;stroke-miterlimit:10;" x1="413" y1="63.5" x2="413" y2="77.5"/>
			
				<line style="fill:none;stroke:#263238;stroke-linecap:round;stroke-linejoin:round;stroke-miterlimit:10;" x1="405" y1="71" x2="405" y2="85"/>
			
				<line style="fill:none;stroke:#263238;stroke-linecap:round;stroke-linejoin:round;stroke-miterlimit:10;" x1="397.5" y1="63.5" x2="397.5" y2="77.5"/>
		</g>
		<g>
			
				<line style="fill:none;stroke:#263238;stroke-linecap:round;stroke-linejoin:round;stroke-miterlimit:10;" x1="406" y1="43" x2="406" y2="46"/>
			
				<line style="fill:none;stroke:#263238;stroke-linecap:round;stroke-linejoin:round;stroke-miterlimit:10;" x1="398" y1="48.407" x2="398" y2="53"/>
			
				<line style="fill:none;stroke:#263238;stroke-linecap:round;stroke-linejoin:round;stroke-miterlimit:10;" x1="390.5" y1="43" x2="390.5" y2="53.093"/>
			
				<line style="fill:none;stroke:#263238;stroke-linecap:round;stroke-linejoin:round;stroke-miterlimit:10;" x1="382.5" y1="48.407" x2="382.5" y2="58.5"/>
			
				<line style="fill:none;stroke:#263238;stroke-linecap:round;stroke-linejoin:round;stroke-miterlimit:10;" x1="375" y1="43" x2="375" y2="53.093"/>
			
				<line style="fill:none;stroke:#263238;stroke-linecap:round;stroke-linejoin:round;stroke-miterlimit:10;" x1="367" y1="48.407" x2="367" y2="58.5"/>
		</g>
	</g>
</g>
<g id="Sun">
	<g>
		
			<ellipse transform="matrix(0.7071 -0.7071 0.7071 0.7071 -17.6067 63.5727)" style="fill:none;stroke:#263238;stroke-linecap:round;stroke-linejoin:round;stroke-miterlimit:10;" cx="67.936" cy="53.04" rx="15.857" ry="15.857"/>
		
			<line style="fill:none;stroke:#263238;stroke-linecap:round;stroke-linejoin:round;stroke-miterlimit:10;" x1="67.737" y1="72.869" x2="67.737" y2="84.313"/>
		
			<line style="fill:none;stroke:#263238;stroke-linecap:round;stroke-linejoin:round;stroke-miterlimit:10;" x1="67.737" y1="22.01" x2="67.737" y2="33.453"/>
		
			<line style="fill:none;stroke:#263238;stroke-linecap:round;stroke-linejoin:round;stroke-miterlimit:10;" x1="87.445" y1="53.161" x2="98.888" y2="53.161"/>
		
			<line style="fill:none;stroke:#263238;stroke-linecap:round;stroke-linejoin:round;stroke-miterlimit:10;" x1="36.586" y1="53.161" x2="48.029" y2="53.161"/>
		
			<line style="fill:none;stroke:#263238;stroke-linecap:round;stroke-linejoin:round;stroke-miterlimit:10;" x1="81.673" y1="39.226" x2="89.764" y2="31.134"/>
		
			<line style="fill:none;stroke:#263238;stroke-linecap:round;stroke-linejoin:round;stroke-miterlimit:10;" x1="45.71" y1="75.189" x2="53.801" y2="67.097"/>
		
			<line style="fill:none;stroke:#263238;stroke-linecap:round;stroke-linejoin:round;stroke-miterlimit:10;" x1="81.673" y1="67.097" x2="89.764" y2="75.189"/>
		
			<line style="fill:none;stroke:#263238;stroke-linecap:round;stroke-linejoin:round;stroke-miterlimit:10;" x1="45.71" y1="31.134" x2="53.801" y2="39.226"/>
	</g>
</g>
<g id="Umbrella_4">
	<g style="opacity:0.3;">
		<path style="fill:#263238;stroke:#263238;stroke-linecap:round;stroke-linejoin:round;stroke-miterlimit:10;" d="M430.768,426.787
			L430.768,426.787c0.573,0,1.038-0.465,1.038-1.038v-10.036h-2.076v10.036C429.73,426.322,430.195,426.787,430.768,426.787z"/>
		<g>
			<path d="M451.262,235.013c-0.074-6.605-5.507-11.919-12.112-11.845c-6.605,0.074-11.919,5.508-11.845,12.113l0.266,23.73
				c0.011,0.999,0.504,1.873,1.248,2.427l0.079,12.085l0.289-0.73c0.402-1.015,1.839-1.015,2.24,0l1.18,2.982l-0.092-14.359
				c0.745-0.57,1.227-1.464,1.216-2.474l-0.266-23.731c-0.036-3.209,2.546-5.848,5.754-5.884c3.209-0.036,5.848,2.545,5.884,5.754
				l0.071,6.356c0.019,1.701,1.413,3.065,3.115,3.046c1.701-0.019,3.064-1.413,3.045-3.115L451.262,235.013z"/>
			<path style="fill:none;stroke:#263238;stroke-linecap:round;stroke-linejoin:round;stroke-miterlimit:10;" d="M396.827,281.66
				l3.508-8.866c0.402-1.015,1.839-1.015,2.24,0l3.508,8.866h0.361l3.508-8.867c0.402-1.015,1.839-1.015,2.24,0l3.508,8.867h0.361
				l3.508-8.867c0.402-1.015,1.839-1.015,2.24,0l3.508,8.867h0.361l3.508-8.867c0.402-1.015,1.839-1.015,2.24,0l3.508,8.867h0.361
				l3.508-8.867c0.402-1.015,1.839-1.015,2.24,0l3.508,8.867h0.361l3.508-8.867c0.402-1.015,1.839-1.015,2.24,0l3.508,8.867h0.361
				l3.508-8.867c0.402-1.015,1.839-1.015,2.24,0l3.508,8.867h2.274L430.715,419.7L395.37,281.66H396.827z"/>
			<g>
				<path style="fill:none;stroke:#263238;stroke-linecap:round;stroke-linejoin:round;stroke-miterlimit:10;" d="M431.399,417.417
					l3.897-135.757l3.508-8.867c0.402-1.015,1.839-1.015,2.24,0l3.508,8.867h0.361l3.508-8.867c0.402-1.015,1.839-1.015,2.24,0
					l3.508,8.867h0.361l-22.632,134.091L431.399,417.417z"/>
				<path style="fill:none;stroke:#263238;stroke-linecap:round;stroke-linejoin:round;stroke-miterlimit:10;" d="M396.827,281.66
					l3.508-8.866c0.402-1.015,1.839-1.015,2.24,0l3.508,8.866h0.361l3.508-8.867c0.402-1.015,1.839-1.015,2.24,0l3.508,8.867h0.361
					l14.654,138.04L395.37,281.66H396.827z"/>
			</g>
		</g>
	</g>
</g>
<g id="Umbrella_3">
	<g style="opacity:0.3;">
		<path d="M366.471,165.025c-1.052-0.18-2.104-0.342-3.154-0.483l-11.028,20.21c-0.749,0.111-1.44,0.551-1.831,1.267l-9.226,16.908
			c-1.248,2.286-4.123,3.131-6.409,1.883c-2.286-1.247-3.131-4.122-1.883-6.408l2.471-4.529c0.661-1.212,0.215-2.731-0.997-3.392
			c-1.212-0.661-2.73-0.215-3.392,0.997l-2.471,4.529c-2.568,4.706-0.829,10.624,3.877,13.192
			c4.706,2.568,10.625,0.829,13.193-3.877l9.227-16.908c0.391-0.716,0.386-1.535,0.075-2.225L366.471,165.025z"/>
		<path d="M398.099,100.342c-0.234-0.08-0.487-0.164-0.755-0.254l6.914-11.366c0.224-0.411,0.739-0.562,1.15-0.338
			c0.411,0.224,0.562,0.739,0.338,1.149l-5.845,12.023C398.75,100.764,398.099,100.342,398.099,100.342z"/>
		<g>
			<path style="fill:none;stroke:#000000;stroke-linecap:round;stroke-linejoin:round;stroke-miterlimit:10;" d="M398.099,100.342
				c0,0,19.405,12.549,35.214,30.971s19.59,54.576,19.59,54.576s-9.935-10.515-21.688,8.149c0,0-41.555-30.121-77.571-30.182
				c0,0-22.998-32.533-55.938-41.104c0,0,13.866-17.511,6.509-18.391c0,0,27.509-15.944,43.952-15.2
				C364.611,89.905,390.496,97.761,398.099,100.342z"/>
			<g>
				<path style="fill:none;stroke:#000000;stroke-linecap:round;stroke-linejoin:round;stroke-miterlimit:10;" d="M413.564,117.116
					c5.718,7.918,12.12,18.726,14.119,29.541c3.867,20.918,2.079,40.71,2.079,40.71"/>
				<path style="fill:none;stroke:#000000;stroke-linecap:round;stroke-linejoin:round;stroke-miterlimit:10;" d="M403.479,104.845
					c0,0,3.405,3.498,7.693,9.064"/>
				<path style="fill:none;stroke:#000000;stroke-linecap:round;stroke-linejoin:round;stroke-miterlimit:10;" d="M359.082,153.892
					c-2.205,4.04-3.295,6.039-3.295,6.039"/>
				<path style="fill:none;stroke:#000000;stroke-linecap:round;stroke-linejoin:round;stroke-miterlimit:10;" d="M395.573,102.099
					c0,0-19.686,20.996-27.759,35.791c-2.392,4.384-4.423,8.105-6.096,11.171"/>
				<path style="fill:none;stroke:#000000;stroke-linecap:round;stroke-linejoin:round;stroke-miterlimit:10;" d="M368.837,96.522
					c0,0-16.745-0.909-34.507,5.072c-17.762,5.981-29.018,15.12-29.018,15.12"/>
			</g>
		</g>
	</g>
</g>
<g id="Umbrella_2">
	<g style="opacity:0.3;">
		<path d="M187.06,196.007l-2.471-4.529c-0.661-1.212-2.18-1.658-3.392-0.997c-1.212,0.661-1.659,2.18-0.997,3.392l2.471,4.529
			c1.248,2.286,0.403,5.161-1.883,6.408c-2.286,1.248-5.161,0.403-6.409-1.883l-9.226-16.908c-0.391-0.716-1.082-1.156-1.831-1.267
			l-11.028-20.21c-1.051,0.141-2.102,0.302-3.154,0.483l11.549,21.164c-0.311,0.69-0.316,1.509,0.075,2.225l9.227,16.908
			c2.568,4.706,8.487,6.445,13.193,3.877C187.889,206.632,189.628,200.714,187.06,196.007z"/>
		<path d="M117.512,100.342c0.234-0.08,0.487-0.164,0.755-0.254l-6.914-11.366c-0.224-0.411-0.739-0.562-1.15-0.338
			c-0.411,0.224-0.562,0.739-0.338,1.149l5.845,12.023C116.861,100.764,117.512,100.342,117.512,100.342z"/>
		<g>
			<path style="fill:none;stroke:#000000;stroke-linecap:round;stroke-linejoin:round;stroke-miterlimit:10;" d="M117.512,100.342
				c0,0-19.405,12.549-35.214,30.971c-15.808,18.422-19.59,54.576-19.59,54.576s9.935-10.515,21.688,8.149
				c0,0,41.555-30.121,77.571-30.182c0,0,22.998-32.533,55.938-41.104c0,0-13.866-17.511-6.509-18.391
				c0,0-27.508-15.944-43.952-15.2C151,89.905,125.115,97.761,117.512,100.342z"/>
			<g>
				<path style="fill:none;stroke:#000000;stroke-linecap:round;stroke-linejoin:round;stroke-miterlimit:10;" d="M102.047,117.116
					c-5.718,7.918-12.12,18.726-14.119,29.541c-3.867,20.918-2.079,40.71-2.079,40.71"/>
				<path style="fill:none;stroke:#000000;stroke-linecap:round;stroke-linejoin:round;stroke-miterlimit:10;" d="M112.132,104.845
					c0,0-3.405,3.498-7.693,9.064"/>
				<path style="fill:none;stroke:#000000;stroke-linecap:round;stroke-linejoin:round;stroke-miterlimit:10;" d="M156.529,153.892
					c2.205,4.04,3.295,6.039,3.295,6.039"/>
				<path style="fill:none;stroke:#000000;stroke-linecap:round;stroke-linejoin:round;stroke-miterlimit:10;" d="M120.038,102.099
					c0,0,19.686,20.996,27.759,35.791c2.392,4.384,4.423,8.105,6.096,11.171"/>
				<path style="fill:none;stroke:#000000;stroke-linecap:round;stroke-linejoin:round;stroke-miterlimit:10;" d="M146.774,96.522
					c0,0,16.745-0.909,34.507,5.072c17.762,5.981,29.018,15.12,29.018,15.12"/>
			</g>
		</g>
	</g>
</g>
<g id="Umbrella_1">
	<g style="opacity:0.3;">
		<path style="fill:#263238;stroke:#263238;stroke-linecap:round;stroke-linejoin:round;stroke-miterlimit:10;" d="M74.163,426.787
			L74.163,426.787c-0.573,0-1.038-0.465-1.038-1.038v-10.036h2.076v10.036C75.201,426.322,74.737,426.787,74.163,426.787z"/>
		<g>
			<path d="M65.782,223.169c-6.605-0.074-12.039,5.24-12.112,11.845l-0.071,6.356c-0.019,1.701,1.344,3.095,3.045,3.115
				c1.701,0.019,3.095-1.344,3.115-3.046l0.071-6.356c0.036-3.209,2.675-5.79,5.883-5.754c3.209,0.036,5.79,2.675,5.754,5.884
				l-0.266,23.731c-0.011,1.01,0.472,1.904,1.216,2.474l-0.092,14.359l1.18-2.982c0.402-1.015,1.839-1.015,2.24,0l0.289,0.73
				l0.079-12.085c0.744-0.555,1.237-1.428,1.248-2.427l0.266-23.73C77.701,228.677,72.387,223.243,65.782,223.169z"/>
			<path style="fill:none;stroke:#263238;stroke-linecap:round;stroke-linejoin:round;stroke-miterlimit:10;" d="M108.104,281.66
				l-3.508-8.866c-0.402-1.015-1.839-1.015-2.24,0l-3.508,8.866h-0.361l-3.508-8.867c-0.402-1.015-1.839-1.015-2.24,0l-3.508,8.867
				h-0.36l-3.508-8.867c-0.402-1.015-1.839-1.015-2.24,0l-3.508,8.867h-0.361l-3.508-8.867c-0.402-1.015-1.839-1.015-2.24,0
				l-3.508,8.867h-0.361l-3.508-8.867c-0.402-1.015-1.839-1.015-2.24,0l-3.508,8.867h-0.361l-3.508-8.867
				c-0.402-1.015-1.839-1.015-2.24,0l-3.508,8.867h-0.361l-3.508-8.867c-0.402-1.015-1.839-1.015-2.24,0l-3.508,8.867h-2.274
				L74.216,419.7l35.345-138.04H108.104z"/>
			<g>
				<path style="fill:none;stroke:#263238;stroke-linecap:round;stroke-linejoin:round;stroke-miterlimit:10;" d="M73.533,417.417
					L69.636,281.66l-3.508-8.867c-0.402-1.015-1.839-1.015-2.24,0l-3.508,8.867h-0.361l-3.508-8.867
					c-0.402-1.015-1.839-1.015-2.24,0l-3.508,8.867h-0.361l22.632,134.091L73.533,417.417z"/>
				<path style="fill:none;stroke:#263238;stroke-linecap:round;stroke-linejoin:round;stroke-miterlimit:10;" d="M108.104,281.66
					l-3.508-8.866c-0.402-1.015-1.839-1.015-2.24,0l-3.508,8.866h-0.361l-3.508-8.867c-0.402-1.015-1.839-1.015-2.24,0l-3.508,8.867
					h-0.36L74.216,419.7l35.345-138.04H108.104z"/>
			</g>
		</g>
	</g>
</g>
<g id="Plants">
	<g>
		<path style="fill:#92E3A9;" d="M122.059,387.392c2.055,0.753,6.943,0.348,6.947,0.348c0.051-0.004-1.245-3.142-1.35-3.33
			c-1.209-2.182-4.83-5.688-7.571-5.148c-1.975,0.389-2.962,2.449-2.4,4.296C118.26,385.446,120.31,386.75,122.059,387.392z"/>
		<path style="fill:#92E3A9;" d="M185.184,366.862c-2.791-0.132-5.857,3.867-6.733,6.204c-0.075,0.202-0.897,3.496-0.846,3.492
			c0,0,0.048-0.003,0.059-0.004c-0.49,0.628-1.006,1.306-1.556,2.059c-1.005,1.398-2.126,2.986-3.231,4.798
			c-1.109,1.808-2.262,3.802-3.288,6.013c-1.031,2.215-2.002,4.597-2.685,7.181c-0.008,0.029-0.012,0.061-0.02,0.09
			c-0.035-0.818-0.209-3.102-0.242-3.275c-0.469-2.451-2.815-6.91-5.589-7.252c-1.998-0.246-3.578,1.403-3.619,3.334
			c-0.042,1.972,1.499,3.85,2.961,5.006c1.649,1.303,6.073,2.395,6.426,2.481c-0.628,2.467-1.072,5.049-1.378,7.687
			c-0.176,1.509-0.307,3.033-0.419,4.563c-0.053-0.706-0.105-1.338-0.123-1.425c-0.469-2.451-2.815-6.91-5.589-7.252
			c-1.998-0.246-3.578,1.403-3.619,3.334c-0.043,1.972,1.499,3.85,2.961,5.006c1.484,1.172,5.237,2.179,6.234,2.432
			c-0.036,0.587-0.08,1.174-0.114,1.761c-0.166,2.819-0.319,5.633-0.554,8.389c-0.082,0.971-0.199,1.924-0.312,2.878
			c-0.048-0.627-0.093-1.155-0.108-1.234c-0.469-2.451-2.815-6.91-5.588-7.252c-1.999-0.246-3.579,1.403-3.62,3.334
			c-0.043,1.971,1.499,3.85,2.961,5.005c1.415,1.119,4.872,2.079,6.055,2.386c-0.146,0.974-0.29,1.949-0.475,2.886
			c-0.141,0.637-0.232,1.26-0.409,1.892c-0.162,0.629-0.322,1.252-0.481,1.869c-0.35,1.177-0.703,2.393-1.073,3.533
			c-0.251,0.795-0.506,1.547-0.759,2.306c0.093-0.966,0.236-2.86,0.23-3.019c-0.062-1.657-0.811-4.311-2.095-6.131
			c-0.008-0.245-0.036-0.487-0.09-0.727c-0.421-1.885-2.294-3.191-4.205-2.557c-2.652,0.88-4.076,5.714-4.053,8.208
			c0.001,0.147,0.194,1.742,0.332,2.747c-0.172-0.578-0.33-1.141-0.514-1.734c-0.354-1.175-0.743-2.337-1.156-3.589
			c-0.221-0.598-0.444-1.201-0.669-1.811c-0.21-0.609-0.51-1.225-0.765-1.846c-0.621-1.425-1.319-2.84-2.055-4.249
			c1.029-0.313,4.663-1.477,6.077-2.704c1.408-1.221,2.861-3.169,2.729-5.136c-0.13-1.927-1.784-3.502-3.768-3.165
			c-2.755,0.468-4.895,5.031-5.251,7.5c-0.022,0.154-0.078,1.955-0.09,2.944c-0.448-0.843-0.892-1.688-1.374-2.526
			c-1.389-2.421-2.871-4.829-4.34-7.237c-0.45-0.738-0.889-1.478-1.332-2.217c0.367-0.108,4.718-1.397,6.302-2.772
			c1.407-1.221,2.861-3.168,2.728-5.136c-0.13-1.927-1.784-3.502-3.768-3.164c-2.755,0.468-4.895,5.03-5.251,7.5
			c-0.027,0.186-0.104,2.777-0.091,3.437c-0.975-1.628-1.931-3.26-2.808-4.908c-1.213-2.271-2.278-4.566-3.146-6.866
			c0.171-0.05,4.718-1.376,6.34-2.783c1.408-1.221,2.861-3.168,2.728-5.136c-0.13-1.927-1.784-3.501-3.769-3.164
			c-2.754,0.468-4.894,5.031-5.25,7.5c-0.028,0.194-0.11,2.982-0.088,3.488c-0.051-0.137-0.12-0.273-0.169-0.41
			c-0.895-2.468-1.452-4.97-1.859-7.339c-0.239-1.375-0.39-2.704-0.509-3.999c0.872-0.16,4.85-0.936,6.449-2.041
			c1.534-1.06,3.192-2.835,3.276-4.806c0.082-1.93-1.389-3.677-3.398-3.559c-2.79,0.163-5.418,4.463-6.043,6.878
			c-0.034,0.132-0.232,1.505-0.362,2.507c-0.044-0.585-0.102-1.189-0.133-1.751c-0.123-2.109-0.107-4.049-0.078-5.766
			c0.024-0.977,0.066-1.859,0.114-2.684c0.773-0.604,3.862-3.075,4.756-4.762c0.872-1.647,1.526-3.987,0.693-5.774
			c-0.816-1.751-2.927-2.623-4.656-1.593c-2.401,1.43-2.752,6.457-2.194,8.889c0.049,0.21,1.181,3.41,1.222,3.379
			c0,0,0.038-0.029,0.046-0.037c-0.062,0.793-0.118,1.644-0.161,2.576c-0.067,1.72-0.126,3.664-0.048,5.784
			c0.073,2.119,0.211,4.42,0.575,6.829c0.362,2.415,0.866,4.938,1.722,7.47c0.01,0.029,0.024,0.057,0.033,0.086
			c-0.48-0.663-1.886-2.471-2.009-2.598c-1.743-1.785-6.16-4.21-8.662-2.965c-1.802,0.897-2.211,3.144-1.18,4.778
			c1.053,1.668,3.374,2.384,5.231,2.542c2.094,0.178,6.387-1.353,6.728-1.476c0.837,2.404,1.891,4.803,3.092,7.172
			c0.684,1.355,1.417,2.699,2.167,4.037c-0.434-0.56-0.826-1.057-0.888-1.121c-1.743-1.785-6.161-4.21-8.662-2.965
			c-1.803,0.897-2.211,3.143-1.18,4.777c1.052,1.668,3.375,2.385,5.231,2.542c1.884,0.16,5.57-1.072,6.541-1.41
			c0.293,0.51,0.581,1.023,0.876,1.532c1.417,2.443,2.842,4.875,4.166,7.302c0.467,0.855,0.895,1.715,1.328,2.573
			c-0.386-0.497-0.715-0.912-0.772-0.971c-1.743-1.785-6.16-4.21-8.662-2.965c-1.802,0.897-2.211,3.144-1.18,4.777
			c1.053,1.668,3.374,2.385,5.231,2.542c1.798,0.153,5.21-0.953,6.366-1.35c0.416,0.893,0.834,1.786,1.197,2.669
			c0.234,0.609,0.502,1.179,0.702,1.803c0.212,0.614,0.422,1.222,0.63,1.825c0.358,1.174,0.734,2.384,1.054,3.538
			c0.229,0.801,0.432,1.569,0.639,2.342c-0.455-0.857-1.381-2.515-1.474-2.645c-1.452-2.029-5.451-5.094-8.113-4.243
			c-1.917,0.614-2.661,2.773-1.889,4.543c0.787,1.808,2.974,2.868,4.785,3.305c1.995,0.48,6.298-0.328,6.835-0.432
			c0.338,1.28,0.655,2.528,0.935,3.711c0.061,0.253,0.111,0.483,0.168,0.73h1.729c-0.095-0.373-0.19-0.746-0.291-1.132
			c-0.338-1.301-0.725-2.685-1.136-4.102c0.318-0.149,2.122-1.009,3.706-2.023c1.521,1.46,5.288,3.048,5.775,3.25
			c-0.424,1.254-0.849,2.47-1.268,3.611c-0.05,0.138-0.098,0.262-0.148,0.396h1.761c0.419-1.229,0.842-2.54,1.264-3.893
			c0.531,0.078,4.877,0.691,6.85,0.119c1.789-0.52,3.925-1.678,4.63-3.522c0.689-1.804-0.153-3.927-2.097-4.452
			c-2.697-0.729-6.552,2.517-7.909,4.61c-0.08,0.123-0.8,1.56-1.238,2.474c0.176-0.576,0.354-1.134,0.528-1.73
			c0.353-1.175,0.67-2.359,1.016-3.631c0.145-0.62,0.292-1.247,0.441-1.879c0.16-0.624,0.251-1.304,0.38-1.962
			c0.269-1.532,0.466-3.096,0.63-4.677c1.03,0.306,4.704,1.341,6.56,1.097c1.848-0.242,4.134-1.064,5.109-2.779
			c0.955-1.679,0.444-3.905-1.397-4.719c-2.556-1.129-6.858,1.496-8.517,3.359c-0.104,0.116-1.144,1.587-1.7,2.406
			c0.091-0.951,0.187-1.9,0.248-2.865c0.177-2.786,0.268-5.612,0.373-8.43c0.031-0.863,0.073-1.723,0.112-2.584
			c0.365,0.113,4.705,1.438,6.785,1.165c1.848-0.242,4.134-1.064,5.109-2.779c0.955-1.678,0.444-3.905-1.398-4.718
			c-2.556-1.129-6.858,1.496-8.517,3.359c-0.125,0.14-1.619,2.259-1.973,2.816c0.085-1.896,0.188-3.785,0.365-5.643
			c0.24-2.563,0.618-5.066,1.163-7.462c0.17,0.053,4.694,1.456,6.823,1.177c1.848-0.242,4.135-1.064,5.109-2.779
			c0.955-1.679,0.444-3.905-1.398-4.718c-2.556-1.129-6.857,1.496-8.517,3.359c-0.13,0.146-1.736,2.426-1.998,2.861
			c0.033-0.142,0.051-0.294,0.086-0.435c0.614-2.551,1.53-4.946,2.498-7.146c0.559-1.279,1.166-2.471,1.782-3.617
			c0.816,0.348,4.561,1.895,6.505,1.856c1.863-0.038,4.226-0.604,5.383-2.201c1.133-1.564,0.87-3.832-0.871-4.843
			c-2.417-1.403-6.98,0.734-8.834,2.403c-0.101,0.091-1.023,1.127-1.685,1.892c0.286-0.513,0.571-1.048,0.855-1.534
			c1.061-1.828,2.145-3.435,3.116-4.852c0.559-0.801,1.08-1.514,1.575-2.176c0.978-0.076,4.917-0.434,6.594-1.348
			c1.636-0.892,3.473-2.483,3.764-4.434C188.474,368.849,187.194,366.957,185.184,366.862z"/>
		<path style="fill:#92E3A9;" d="M171.641,385.483c0.045,0.024,0.694-3.307,0.711-3.522c0.195-2.487-0.891-7.408-3.476-8.47
			c-1.862-0.765-3.821,0.408-4.371,2.26c-0.562,1.89,0.428,4.109,1.534,5.61C167.337,383.123,171.638,385.481,171.641,385.483z"/>
	</g>
	<g>
		<path style="fill:#92E3A9;" d="M383.266,387.392c-2.055,0.753-6.943,0.348-6.947,0.348c-0.051-0.004,1.245-3.142,1.35-3.33
			c1.209-2.182,4.83-5.688,7.572-5.148c1.975,0.389,2.962,2.449,2.4,4.296C387.066,385.446,385.016,386.75,383.266,387.392z"/>
		<path style="fill:#92E3A9;" d="M320.142,366.862c2.791-0.132,5.857,3.867,6.733,6.204c0.075,0.202,0.897,3.496,0.846,3.492
			c0,0-0.047-0.003-0.059-0.004c0.489,0.628,1.006,1.306,1.556,2.059c1.005,1.398,2.126,2.986,3.231,4.798
			c1.109,1.808,2.262,3.802,3.288,6.013c1.031,2.215,2.002,4.597,2.685,7.181c0.008,0.029,0.012,0.061,0.02,0.09
			c0.035-0.818,0.209-3.102,0.242-3.275c0.469-2.451,2.815-6.91,5.589-7.252c1.998-0.246,3.578,1.403,3.619,3.334
			c0.042,1.972-1.499,3.85-2.961,5.006c-1.649,1.303-6.073,2.395-6.426,2.481c0.628,2.467,1.072,5.049,1.378,7.687
			c0.176,1.509,0.307,3.033,0.419,4.563c0.053-0.706,0.105-1.338,0.123-1.425c0.469-2.451,2.815-6.91,5.589-7.252
			c1.998-0.246,3.578,1.403,3.619,3.334c0.043,1.972-1.499,3.85-2.961,5.006c-1.484,1.172-5.237,2.179-6.234,2.432
			c0.036,0.587,0.08,1.174,0.114,1.761c0.166,2.819,0.319,5.633,0.554,8.389c0.082,0.971,0.199,1.924,0.312,2.878
			c0.048-0.627,0.093-1.155,0.108-1.234c0.469-2.451,2.815-6.91,5.588-7.252c1.999-0.246,3.579,1.403,3.62,3.334
			c0.043,1.971-1.499,3.85-2.961,5.005c-1.415,1.119-4.872,2.079-6.055,2.386c0.146,0.974,0.29,1.949,0.475,2.886
			c0.141,0.637,0.232,1.26,0.409,1.892c0.162,0.629,0.322,1.252,0.481,1.869c0.35,1.177,0.703,2.393,1.073,3.533
			c0.251,0.795,0.506,1.547,0.759,2.306c-0.093-0.966-0.236-2.86-0.23-3.019c0.062-1.657,0.811-4.311,2.095-6.131
			c0.008-0.245,0.036-0.487,0.09-0.727c0.421-1.885,2.294-3.191,4.205-2.557c2.652,0.88,4.076,5.714,4.053,8.208
			c-0.001,0.147-0.194,1.742-0.332,2.747c0.172-0.578,0.33-1.141,0.514-1.734c0.354-1.175,0.743-2.337,1.156-3.589
			c0.221-0.598,0.444-1.201,0.669-1.811c0.21-0.609,0.51-1.225,0.765-1.846c0.621-1.425,1.32-2.84,2.055-4.249
			c-1.029-0.313-4.663-1.477-6.077-2.704c-1.408-1.221-2.861-3.169-2.729-5.136c0.13-1.927,1.784-3.502,3.768-3.165
			c2.755,0.468,4.895,5.031,5.251,7.5c0.022,0.154,0.078,1.955,0.091,2.944c0.448-0.843,0.892-1.688,1.374-2.526
			c1.389-2.421,2.871-4.829,4.34-7.237c0.45-0.738,0.889-1.478,1.332-2.217c-0.367-0.108-4.718-1.397-6.302-2.772
			c-1.407-1.221-2.861-3.168-2.728-5.136c0.13-1.927,1.784-3.502,3.768-3.164c2.755,0.468,4.895,5.03,5.251,7.5
			c0.027,0.186,0.104,2.777,0.091,3.437c0.975-1.628,1.931-3.26,2.808-4.908c1.213-2.271,2.279-4.566,3.146-6.866
			c-0.171-0.05-4.718-1.376-6.34-2.783c-1.408-1.221-2.861-3.168-2.728-5.136c0.13-1.927,1.784-3.501,3.769-3.164
			c2.754,0.468,4.894,5.031,5.25,7.5c0.028,0.194,0.11,2.982,0.088,3.488c0.051-0.137,0.12-0.273,0.169-0.41
			c0.895-2.468,1.452-4.97,1.859-7.339c0.239-1.375,0.39-2.704,0.509-3.999c-0.872-0.16-4.85-0.936-6.449-2.041
			c-1.534-1.06-3.192-2.835-3.276-4.806c-0.082-1.93,1.389-3.677,3.398-3.559c2.789,0.163,5.418,4.463,6.043,6.878
			c0.034,0.132,0.232,1.505,0.362,2.507c0.044-0.585,0.102-1.189,0.133-1.751c0.123-2.109,0.107-4.049,0.078-5.766
			c-0.024-0.977-0.066-1.859-0.114-2.684c-0.773-0.604-3.862-3.075-4.756-4.762c-0.873-1.647-1.526-3.987-0.693-5.774
			c0.816-1.751,2.927-2.623,4.656-1.593c2.401,1.43,2.752,6.457,2.194,8.889c-0.049,0.21-1.181,3.41-1.222,3.379
			c0,0-0.038-0.029-0.046-0.037c0.062,0.793,0.118,1.644,0.161,2.576c0.067,1.72,0.126,3.664,0.048,5.784
			c-0.073,2.119-0.211,4.42-0.575,6.829c-0.362,2.415-0.866,4.938-1.722,7.47c-0.01,0.029-0.024,0.057-0.033,0.086
			c0.48-0.663,1.886-2.471,2.009-2.598c1.743-1.785,6.16-4.21,8.662-2.965c1.802,0.897,2.211,3.144,1.18,4.778
			c-1.053,1.668-3.374,2.384-5.231,2.542c-2.094,0.178-6.387-1.353-6.728-1.476c-0.837,2.404-1.891,4.803-3.092,7.172
			c-0.684,1.355-1.417,2.699-2.167,4.037c0.434-0.56,0.826-1.057,0.888-1.121c1.744-1.785,6.161-4.21,8.662-2.965
			c1.803,0.897,2.211,3.143,1.18,4.777c-1.052,1.668-3.375,2.385-5.231,2.542c-1.884,0.16-5.57-1.072-6.542-1.41
			c-0.293,0.51-0.581,1.023-0.876,1.532c-1.417,2.443-2.841,4.875-4.166,7.302c-0.467,0.855-0.896,1.715-1.328,2.573
			c0.386-0.497,0.715-0.912,0.772-0.971c1.743-1.785,6.16-4.21,8.662-2.965c1.802,0.897,2.211,3.144,1.18,4.777
			c-1.053,1.668-3.374,2.385-5.231,2.542c-1.798,0.153-5.21-0.953-6.366-1.35c-0.416,0.893-0.834,1.786-1.197,2.669
			c-0.234,0.609-0.502,1.179-0.702,1.803c-0.212,0.614-0.422,1.222-0.63,1.825c-0.358,1.174-0.734,2.384-1.054,3.538
			c-0.229,0.801-0.432,1.569-0.639,2.342c0.455-0.857,1.381-2.515,1.474-2.645c1.452-2.029,5.451-5.094,8.113-4.243
			c1.917,0.614,2.661,2.773,1.889,4.543c-0.787,1.808-2.974,2.868-4.785,3.305c-1.995,0.48-6.298-0.328-6.835-0.432
			c-0.338,1.28-0.655,2.528-0.935,3.711c-0.061,0.253-0.111,0.483-0.168,0.73h-1.729c0.095-0.373,0.19-0.746,0.291-1.132
			c0.338-1.301,0.725-2.685,1.136-4.102c-0.318-0.149-2.122-1.009-3.706-2.023c-1.521,1.46-5.288,3.048-5.775,3.25
			c0.424,1.254,0.849,2.47,1.268,3.611c0.05,0.138,0.098,0.262,0.148,0.396h-1.761c-0.419-1.229-0.842-2.54-1.264-3.893
			c-0.531,0.078-4.876,0.691-6.85,0.119c-1.789-0.52-3.925-1.678-4.63-3.522c-0.689-1.804,0.153-3.927,2.097-4.452
			c2.697-0.729,6.552,2.517,7.909,4.61c0.08,0.123,0.8,1.56,1.238,2.474c-0.176-0.576-0.354-1.134-0.528-1.73
			c-0.353-1.175-0.67-2.359-1.016-3.631c-0.146-0.62-0.293-1.247-0.441-1.879c-0.16-0.624-0.251-1.304-0.38-1.962
			c-0.269-1.532-0.466-3.096-0.63-4.677c-1.03,0.306-4.704,1.341-6.56,1.097c-1.848-0.242-4.134-1.064-5.109-2.779
			c-0.955-1.679-0.444-3.905,1.397-4.719c2.556-1.129,6.858,1.496,8.517,3.359c0.103,0.116,1.144,1.587,1.699,2.406
			c-0.091-0.951-0.187-1.9-0.248-2.865c-0.177-2.786-0.268-5.612-0.373-8.43c-0.031-0.863-0.073-1.723-0.112-2.584
			c-0.366,0.113-4.705,1.438-6.785,1.165c-1.848-0.242-4.134-1.064-5.109-2.779c-0.955-1.678-0.444-3.905,1.398-4.718
			c2.556-1.129,6.858,1.496,8.517,3.359c0.125,0.14,1.619,2.259,1.973,2.816c-0.085-1.896-0.188-3.785-0.365-5.643
			c-0.24-2.563-0.618-5.066-1.164-7.462c-0.17,0.053-4.694,1.456-6.823,1.177c-1.848-0.242-4.135-1.064-5.109-2.779
			c-0.955-1.679-0.444-3.905,1.398-4.718c2.556-1.129,6.857,1.496,8.517,3.359c0.13,0.146,1.736,2.426,1.998,2.861
			c-0.033-0.142-0.051-0.294-0.086-0.435c-0.615-2.551-1.53-4.946-2.498-7.146c-0.559-1.279-1.166-2.471-1.782-3.617
			c-0.816,0.348-4.561,1.895-6.505,1.856c-1.863-0.038-4.226-0.604-5.383-2.201c-1.133-1.564-0.87-3.832,0.871-4.843
			c2.417-1.403,6.98,0.734,8.835,2.403c0.101,0.091,1.023,1.127,1.685,1.892c-0.286-0.513-0.571-1.048-0.855-1.534
			c-1.061-1.828-2.145-3.435-3.116-4.852c-0.559-0.801-1.08-1.514-1.575-2.176c-0.978-0.076-4.917-0.434-6.594-1.348
			c-1.635-0.892-3.473-2.483-3.764-4.434C316.852,368.849,318.131,366.957,320.142,366.862z"/>
		<path style="fill:#92E3A9;" d="M333.684,385.483c-0.045,0.024-0.694-3.307-0.711-3.522c-0.195-2.487,0.891-7.408,3.476-8.47
			c1.862-0.765,3.821,0.408,4.371,2.26c0.562,1.89-0.428,4.109-1.534,5.61C337.989,383.123,333.687,385.481,333.684,385.483z"/>
	</g>
</g>
<g id="Shadow">
	<ellipse style="opacity:0.2;" cx="251.945" cy="458.163" rx="100.678" ry="15.358"/>
</g>
<g id="Character">
	<g>
		<g>
			<path style="fill:#92E3A9;stroke:#263238;stroke-linecap:round;stroke-linejoin:round;stroke-miterlimit:10;" d="M352.88,320.671
				c-11.44,10-36.95,36.76-36.95,36.76l-51.65,30.4c-22.39-8.57-94.31-23.34-94.31-23.34c-2.39-15.24-15.25-72.4-15.25-72.4
				l60.02-72.88l83.83-10.48c17.63,10.48,56.69,42.39,56.69,42.39C352.4,269.701,352.88,320.671,352.88,320.671z"/>
			<path style="fill:#FFFFFF;stroke:#263238;stroke-linecap:round;stroke-linejoin:round;stroke-miterlimit:10;" d="
				M237.968,293.295l18.049-5.383l-19.632-4.433l-1.625-0.134l-44.289-3.665l-35.413,12.005l-0.335,0.407
				c0,0,12.861,57.16,15.242,72.402c0,0,8.473-21.801,18.606-33.2C198.704,319.893,237.968,293.295,237.968,293.295z"/>
			<path style="fill:#FFFFFF;stroke:#263238;stroke-linecap:round;stroke-linejoin:round;stroke-miterlimit:10;" d="
				M298.575,208.732l-83.084,10.385l1.632,12.478l14.196,18.951l28.815,32.931c0,0,7.283-28.815,11.399-40.531
				c4.116-11.716,14.181-24.213,14.181-24.213l4.24-4.699l8.695-5.259C298.624,208.762,298.599,208.747,298.575,208.732z"/>
			<path style="fill:none;stroke:#263238;stroke-linecap:round;stroke-linejoin:round;stroke-miterlimit:10;" d="M284.82,213.387
				c0,0,12.326,0.411,20.955,4.931"/>
			<path style="fill:none;stroke:#263238;stroke-linecap:round;stroke-linejoin:round;stroke-miterlimit:10;" d="M231.82,225.727
				c1.546-0.436,3.188-0.855,4.927-1.246"/>
			<path style="fill:none;stroke:#263238;stroke-linecap:round;stroke-linejoin:round;stroke-miterlimit:10;" d="M212.505,234.342
				c0,0,5.411-4.272,16.707-7.836"/>
			<polygon style="fill:#FFFFFF;stroke:#263238;stroke-linecap:round;stroke-linejoin:round;stroke-miterlimit:10;" points="
				264.279,387.833 261.083,288.228 315.927,357.436 			"/>
			<path style="fill:#FFFFFF;stroke:#263238;stroke-linecap:round;stroke-linejoin:round;stroke-miterlimit:10;" d="M352.88,320.671
				c0,0-32.58-27.38-88.95-36.88c0,0,49.98-33.04,91.33-32.67C352.4,269.701,352.88,320.671,352.88,320.671z"/>
		</g>
		<g>
			<path style="fill:#263238;stroke:#263238;stroke-linecap:round;stroke-linejoin:round;stroke-miterlimit:10;" d="
				M236.164,415.129l-17.789,1.334c0,0-6.226-0.222-3.113,9.784s16.455,21.792,29.797,26.906
				c13.342,5.114,36.023,6.671,42.694,5.559c6.671-1.112,17.122-12.897,24.238-20.458c7.116-7.561,11.118-16.233,11.118-16.9
				c0-0.667-4.892-3.335-19.346-5.337c-14.454-2.001-52.256-1.779-62.262-1.779L236.164,415.129z"/>
			<g>
				
					<rect x="234.62" y="299.695" style="fill:#263238;stroke:#263238;stroke-linecap:round;stroke-linejoin:round;stroke-miterlimit:10;" width="39.145" height="31.637"/>
				<path style="fill:#C7C7C7;stroke:#263238;stroke-linecap:round;stroke-linejoin:round;stroke-miterlimit:10;" d="
					M252.499,320.853c1.134,0.227,13.384,0.681,17.467,0.681c4.083,0,9.528,3.176,9.528,3.176s-1.361,24.046-1.361,32.666
					s5.898,51.949,6.125,52.856c0.227,0.907,2.042,7.94-2.268,9.754c-4.31,1.815-19.963-0.907-24.046-0.68
					c-4.083,0.227-10.435,1.588-20.87,0.68c-10.435-0.907-11.342-0.907-10.435-2.495c0.907-1.588,3.857-88.018,6.352-90.74
					c2.495-2.722,8.847-5.218,8.847-5.218C245.466,320.173,251.365,320.626,252.499,320.853z"/>
				<path style="fill:none;stroke:#263238;stroke-linecap:round;stroke-linejoin:round;stroke-miterlimit:10;" d="M257.943,419.306
					c0,0,5.218-1.361,9.528-1.588"/>
				<path style="fill:none;stroke:#263238;stroke-linecap:round;stroke-linejoin:round;stroke-miterlimit:10;" d="M262.456,399.93
					c-0.828,1.219-1.725,2.389-2.698,3.497"/>
				<path style="fill:none;stroke:#263238;stroke-linecap:round;stroke-linejoin:round;stroke-miterlimit:10;" d="M272.235,361.913
					c0,0,0.53,20.688-8.4,35.837"/>
			</g>
			<g>
				<path style="fill:#FFFFFF;stroke:#263238;stroke-linecap:round;stroke-linejoin:round;stroke-miterlimit:10;" d="
					M245.423,310.049v8.951l-8.263,4.361c0,0,4.59,9.87,15.837,10.328c11.247,0.459,20.428-12.165,20.428-12.165l-10.099-1.607
					l-0.229-9.87H245.423z"/>
				
					<line style="fill:none;stroke:#263238;stroke-linecap:round;stroke-linejoin:round;stroke-miterlimit:10;" x1="245.423" y1="319.001" x2="245.653" y2="327.264"/>
				
					<line style="fill:none;stroke:#263238;stroke-linecap:round;stroke-linejoin:round;stroke-miterlimit:10;" x1="263.326" y1="319.919" x2="263.326" y2="326.346"/>
			</g>
			<g>
				<path style="fill:#FFFFFF;stroke:#263238;stroke-linecap:round;stroke-linejoin:round;stroke-miterlimit:10;" d="
					M237.62,322.214c0,0-20.657,10.558-22.034,14.001c-1.377,3.443-12.165,41.314-12.165,42.003s-8.951,5.968-11.247,10.099
					c-2.295,4.132-0.459,9.87,0.23,10.788c0.689,0.918,13.542,12.165,21.116,17.444c7.574,5.279,9.869,4.59,15.378-0.689
					c5.509-5.279,7.804-15.837,7.574-24.789C236.243,382.12,237.62,322.214,237.62,322.214z"/>
				<g>
					<g>
						<path style="fill:none;stroke:#263238;stroke-linecap:round;stroke-linejoin:round;stroke-miterlimit:10;" d="
							M219.494,400.348c0.024,0.818,0.023,1.483-0.007,1.97c-0.459,7.574-1.836,9.181-1.836,9.181"/>
						<path style="fill:none;stroke:#263238;stroke-linecap:round;stroke-linejoin:round;stroke-miterlimit:10;" d="M213.52,344.249
							c0,0,4.609,36.215,5.742,51.906"/>
						<path style="fill:none;stroke:#263238;stroke-linecap:round;stroke-linejoin:round;stroke-miterlimit:10;" d="
							M230.349,399.875c0.662-0.952,1.327-1.972,1.991-3.066"/>
						<path style="fill:none;stroke:#263238;stroke-linecap:round;stroke-linejoin:round;stroke-miterlimit:10;" d="
							M210.306,412.876c0,0,9.001,1.688,18.868-11.379"/>
					</g>
					<path style="fill:none;stroke:#263238;stroke-linecap:round;stroke-linejoin:round;stroke-miterlimit:10;" d="M207.383,384.808
						c2.628,5.378,6.003,14.568,4.989,24.855"/>
					<path style="fill:none;stroke:#263238;stroke-linecap:round;stroke-linejoin:round;stroke-miterlimit:10;" d="M204.568,379.825
						c0,0,0.808,1.162,1.909,3.215"/>
				</g>
			</g>
			<g>
				<path style="fill:#FFFFFF;stroke:#263238;stroke-linecap:round;stroke-linejoin:round;stroke-miterlimit:10;" d="
					M275.641,323.021c0,0-0.268,26.543-1.609,51.478c-1.341,24.935,4.558,38.34,9.384,42.362c4.826,4.022,7.775,4.558,7.775,4.558
					s19.036-10.457,21.181-13.406c2.145-2.949,6.971-11.797,5.898-19.572c-1.072-7.775-7.775-18.232-8.58-20.645
					c-0.804-2.413-9.384-15.014-12.333-21.717c-2.949-6.703-6.971-14.478-10.188-17.159
					C283.953,326.238,275.641,323.021,275.641,323.021z"/>
				<path style="fill:#FFFFFF;stroke:#263238;stroke-linecap:round;stroke-linejoin:round;stroke-miterlimit:10;" d="
					M281.808,392.194c-2.145,11.261,9.92,19.304,17.427,19.84c7.507,0.536,14.478-5.63,14.478-5.63"/>
				<path style="fill:#FFFFFF;stroke:#263238;stroke-linecap:round;stroke-linejoin:round;stroke-miterlimit:10;" d="
					M297.359,349.028c0,0-11.76,27.988-15.013,40.789"/>
				<path style="fill:#FFFFFF;stroke:#263238;stroke-linecap:round;stroke-linejoin:round;stroke-miterlimit:10;" d="M315.4,395.797
					c1.006-5.568,1.197-12.615-1.418-19.153"/>
				<path style="fill:#FFFFFF;stroke:#263238;stroke-linecap:round;stroke-linejoin:round;stroke-miterlimit:10;" d="
					M294.628,368.349c-2.581,5.595-6.65,15.159-7.725,21.968c-1.609,10.188,8.043,13.942,13.674,15.014
					c4.874,0.928,11.556-2.362,13.959-6.915"/>
				<path style="fill:#FFFFFF;stroke:#263238;stroke-linecap:round;stroke-linejoin:round;stroke-miterlimit:10;" d="
					M296.822,363.774c0,0-0.587,1.155-1.479,3.042"/>
			</g>
			<g>
				<path style="fill:none;stroke:#263238;stroke-linecap:round;stroke-linejoin:round;stroke-miterlimit:10;" d="M192.863,390.383
					c0,0,1.193-0.273,2.496,2.983c1.302,3.256,4.167,3.646,4.949,3.646c0.781,0,3.777,0,4.949,1.563
					c1.172,1.563-1.953,4.818-4.037,4.818c-2.084,0-7.944-1.693-10.288-0.781c-2.344,0.912-0.912-4.167-0.13-6.642
					C191.582,393.496,192.863,390.383,192.863,390.383z"/>
				<g>
					<g>
						<path style="fill:none;stroke:#263238;stroke-linecap:round;stroke-linejoin:round;stroke-miterlimit:10;" d="
							M192.863,390.383c0,0-5.049-0.459-5.049,2.984c0,3.443,2.525,9.41,4.59,8.263c2.066-1.148,1.836-2.984,1.836-6.427
							C194.24,391.76,192.863,390.383,192.863,390.383z"/>
						<path style="fill:none;stroke:#263238;stroke-linecap:round;stroke-linejoin:round;stroke-miterlimit:10;" d="
							M187.675,392.194c0,0-2.474-1.172-2.735,4.298c-0.26,5.47,2.865,7.553,4.428,7.553c1.563,0,1.693-2.344,1.693-2.344
							S187.675,397.663,187.675,392.194z"/>
						<path style="fill:none;stroke:#263238;stroke-linecap:round;stroke-linejoin:round;stroke-miterlimit:10;" d="
							M185.201,393.756c0,0-2.214,3.386-2.474,6.251c-0.26,2.865,3.907,7.032,5.73,4.818l-0.391-1.172
							C188.066,403.654,184.159,401.049,185.201,393.756z"/>
						<path style="fill:none;stroke:#263238;stroke-linecap:round;stroke-linejoin:round;stroke-miterlimit:10;" d="
							M182.335,401.049c0,0-1.172,2.605-0.26,5.6c0.912,2.995,3.646,3.646,3.386,1.693c-0.26-1.954-0.912-4.558-0.912-4.558
							L182.335,401.049z"/>
					</g>
					<path style="fill:none;stroke:#263238;stroke-linecap:round;stroke-linejoin:round;stroke-miterlimit:10;" d="M200.307,397.663
						c0,0,0.13,6.642,2.605,7.423c2.474,0.781,3.646-3.777,2.605-5.86c-1.042-2.084-4.688-3.126-5.99-2.474"/>
				</g>
			</g>
			<path style="fill:#FFFFFF;stroke:#263238;stroke-linecap:round;stroke-linejoin:round;stroke-miterlimit:10;" d="M301.02,337.039
				c-1.087-0.449-2.303,0.328-2.516,1.484c-0.468,2.532-1.567,7.623-3.102,9.394c-2.076,2.396-2.555,5.75-0.799,8.465
				c1.757,2.715,3.194,4.632,3.194,4.632s0.958,3.514,0,6.229c-0.958,2.715-2.555,12.457-2.236,18.367
				c0.319,5.909,2.555,6.867,7.027,6.708c4.472-0.16,7.347-6.867,7.187-11.659c-0.16-4.791-3.354-15.332-3.354-17.249
				s1.757-5.749,1.757-5.749s-5.43-7.826-6.069-9.103c-0.639-1.278-1.118-2.396-1.118-2.396S304.106,338.314,301.02,337.039z"/>
			<g>
				<g>
					<path style="fill:#263238;" d="M312.94,373.63c-0.723-0.077-1.404-0.48-1.809-1.15l-13.877-22.937
						c-0.69-1.14-0.325-2.624,0.815-3.314c1.139-0.691,2.624-0.326,3.314,0.815l13.877,22.937c0.69,1.14,0.325,2.624-0.815,3.314
						C313.975,373.579,313.447,373.684,312.94,373.63z"/>
				</g>
				<g>
					
						<rect x="281.679" y="289.383" transform="matrix(0.8556 -0.5176 0.5176 0.8556 -125.3795 192.8008)" style="fill:#FFFFFF;stroke:#263238;stroke-linecap:round;stroke-linejoin:round;stroke-miterlimit:10;" width="2.413" height="63.494"/>
				</g>
			</g>
			<g>
				<path style="fill:#FFFFFF;stroke:#263238;stroke-linecap:round;stroke-linejoin:round;stroke-miterlimit:10;" d="
					M303.546,349.035c0,0-6.548,1.757-6.069,4.312c0.479,2.555,2.236,1.757,3.673,1.118c1.437-0.639,5.43-1.597,5.43-3.514
					C306.581,349.035,304.824,348.875,303.546,349.035z"/>
				<path style="fill:#FFFFFF;stroke:#263238;stroke-linecap:round;stroke-linejoin:round;stroke-miterlimit:10;" d="
					M301.15,354.465c0,0-2.715,1.278-1.916,2.875c0.799,1.597,1.597,1.916,2.396,1.437c0.798-0.479,5.909-2.396,6.708-3.993
					c0.799-1.597-1.437-2.875-2.076-2.715C305.622,352.229,301.15,354.465,301.15,354.465z"/>
				<path style="fill:#FFFFFF;stroke:#263238;stroke-linecap:round;stroke-linejoin:round;stroke-miterlimit:10;" d="
					M301.63,358.777c0,0-0.16,1.118,1.437,2.236c1.597,1.118,5.43-1.757,6.229-3.354c0.798-1.597-0.958-2.875-0.958-2.875
					S302.588,358.298,301.63,358.777z"/>
				<path style="fill:#FFFFFF;stroke:#263238;stroke-linecap:round;stroke-linejoin:round;stroke-miterlimit:10;" d="
					M304.824,349.035c0,0,0.479-3.194-1.118-4.152c-1.597-0.958-5.59,1.118-6.069,3.194c-0.479,2.076,0.958,2.875,2.236,2.236
					C301.15,349.674,304.824,349.035,304.824,349.035z"/>
			</g>
			<g>
				<path style="fill:#263238;stroke:#263238;stroke-linecap:round;stroke-linejoin:round;stroke-miterlimit:10;" d="
					M325.559,415.126c0.66,11.792-21.347,25.578-31.804,30.243c-2.96,1.327-7.03,3-11.526,4.77
					c-11.422,4.488-25.586,9.58-31.168,11.02c-7.778,2.003-18.452,2.22-29.125,2.22c-10.674,0-16.457-2.888-18.017-11.116
					c-1.552-8.228,2.445-8.671,6.008-8.671c3.555,0,19.57,5.783,27.131,4.673c7.561-1.118,14.896-7.786,25.57-16.682
					c1.239-1.029,2.711-2.196,4.343-3.443c12.411-9.491,34.128-23.905,34.128-23.905s6.443-3.338,10.448-4.448
					C315.553,398.677,324.891,403.342,325.559,415.126z"/>
				<path style="fill:#4F4F4F;stroke:#263238;stroke-linecap:round;stroke-linejoin:round;stroke-miterlimit:10;" d="
					M282.229,450.139c-11.422,4.488-25.586,9.58-31.168,11.02c-7.778,2.003-18.452,2.22-29.125,2.22
					c-10.674,0-16.457-2.888-18.017-11.116c-1.552-8.228,2.445-8.671,6.008-8.671c3.555,0,19.57,5.783,27.131,4.673
					c7.561-1.118,14.896-7.786,25.57-16.682c1.239-1.029,2.711-2.196,4.343-3.443c-0.217,4.174,0.249,11.768,5.663,16.561
					C276.092,447.766,279.502,449.335,282.229,450.139z"/>
			</g>
			<g>
				<path style="fill:#263238;stroke:#263238;stroke-linecap:round;stroke-linejoin:round;stroke-miterlimit:10;" d="
					M234.163,430.917c0,0-9.339-8.895-18.456-18.679c-9.117-9.784-17.321-15.053-26.339-8.194
					c-9.018,6.859-4.348,14.865,2.546,24.871c6.893,10.007,20.235,20.013,35.134,26.684s34.467,10.674,42.472,10.674
					c8.005,0,23.793,2.891,28.018,1.556c4.225-1.334,5.781-7.56,5.114-12.23c-0.667-4.67-3.113-6.226-8.45-6.226
					s-15.566,4.447-26.017,3.78C257.734,452.486,242.168,439.811,234.163,430.917z"/>
				<path style="fill:#4F4F4F;stroke:#263238;stroke-linecap:round;stroke-linejoin:round;stroke-miterlimit:10;" d="
					M227.047,455.599c14.898,6.671,34.467,10.674,42.472,10.674c8.005,0,23.793,2.891,28.018,1.556s5.781-7.56,5.114-12.23
					c-0.667-4.67-3.113-6.226-8.45-6.226s-15.566,4.447-26.017,3.78c-10.451-0.667-26.017-13.342-34.022-22.236
					c0,0-3.66-3.486-8.635-8.494c-0.543,2.532-2.571,9.04-9.599,13.608c-4.852,3.154-9.502,4.387-12.729,4.858
					C209.923,446.501,218.204,451.64,227.047,455.599z"/>
			</g>
			<g>
				<g>
					<path style="fill:#FFFFFF;stroke:#263238;stroke-linecap:round;stroke-linejoin:round;stroke-miterlimit:10;" d="
						M239.226,305.689c0,0,10.788,12.165,14.919,12.165s15.378-10.788,16.296-12.853c0.918-2.066,0.689-26.625,0.689-26.625
						s-8.492-5.279-19.05-3.443c-10.558,1.836-12.853,5.738-12.853,5.738V305.689z"/>
					<path style="fill:none;stroke:#263238;stroke-linecap:round;stroke-linejoin:round;stroke-miterlimit:10;" d="M243.817,289.851
						c0,0,3.443-1.607,5.509-0.689"/>
					<path style="fill:none;stroke:#263238;stroke-linecap:round;stroke-linejoin:round;stroke-miterlimit:10;" d="M265.851,289.851
						c-2.295-2.295-5.738-0.918-5.738-0.918"/>
					
						<line style="fill:none;stroke:#263238;stroke-linecap:round;stroke-linejoin:round;stroke-miterlimit:10;" x1="257.359" y1="295.59" x2="254.375" y2="296.737"/>
					<path style="fill:none;stroke:#263238;stroke-linecap:round;stroke-linejoin:round;stroke-miterlimit:10;" d="M258.965,283.884
						c0,0,4.131-2.984,7.345,1.148"/>
					<path style="fill:none;stroke:#263238;stroke-linecap:round;stroke-linejoin:round;stroke-miterlimit:10;" d="M251.162,283.884
						c0,0-5.049-3.213-7.574,2.295"/>
					<path style="fill:none;stroke:#263238;stroke-linecap:round;stroke-linejoin:round;stroke-miterlimit:10;" d="M247.719,300.869
						c0,0,2.754,2.984,7.345,2.984c4.59,0,7.115-3.672,7.115-3.672"/>
				</g>
				<path style="fill:#263238;stroke:#263238;stroke-linecap:round;stroke-linejoin:round;stroke-miterlimit:10;" d="
					M240.604,278.834c0,0-1.607,39.249-0.459,47.511c1.148,8.263,6.886,28.461,8.722,31.215c1.836,2.754,2.754,2.984,2.754,2.984
					s-10.427,3.71-16.526-4.131c-3.213-4.132-6.656-8.263-7.804-19.28c-1.572-15.09,5.05-49.577,5.05-49.577
					S234.177,279.064,240.604,278.834z"/>
				<path style="fill:#263238;stroke:#263238;stroke-linecap:round;stroke-linejoin:round;stroke-miterlimit:10;" d="
					M268.823,278.834c0,0,1.607,39.249,0.459,47.511c-1.148,8.263-6.886,28.461-8.722,31.215c-1.836,2.754-2.754,2.984-2.754,2.984
					s10.427,3.71,16.526-4.131c3.213-4.132,6.656-8.263,7.804-19.28c1.572-15.09-5.049-49.577-5.049-49.577
					S275.25,279.064,268.823,278.834z"/>
				<path style="fill:#C7C7C7;stroke:#263238;stroke-linecap:round;stroke-linejoin:round;stroke-miterlimit:10;" d="M232.8,280.557
					c0,0,3.902-15.264,19.509-16.871c15.608-1.607,21.805,6.886,22.493,14.46c0,0-8.263-7.115-22.264-5.508
					C238.538,274.244,232.8,280.557,232.8,280.557z"/>
				<path style="fill:#C7C7C7;stroke:#263238;stroke-linecap:round;stroke-linejoin:round;stroke-miterlimit:10;" d="
					M231.423,291.688c0,0,1.607-8.033,12.853-11.935c11.247-3.902,20.887-0.689,23.641,0.229c2.754,0.918,8.033,5.279,9.181,8.263
					c0,0,0.459-2.295,0-4.82c-0.459-2.525,0.459-6.656-3.672-9.87c-4.132-3.213-15.608-5.509-24.329-4.131
					c-8.722,1.377-15.149,6.656-17.444,11.476C229.357,285.72,230.505,290.999,231.423,291.688z"/>
			</g>
		</g>
	</g>
</g>
</svg>
